<svg width="60" height="60" viewBox="0 0 60 60" fill="currentColor" xmlns="http://www.w3.org/2000/svg">
<rect width="60" height="60" rx="16"/>
<path d="M40.55 32.9625C40.3745 32.8539 40.231 32.7006 40.1344 32.5183C40.0377 32.336 39.9913 32.1312 40 31.925V27.8625C40.0077 25.824 39.4205 23.8276 38.3104 22.1179C37.2002 20.4083 35.6153 19.0597 33.75 18.2375C33.6136 17.3524 33.1649 16.5453 32.4851 15.9622C31.8053 15.3792 30.9393 15.0586 30.0437 15.0586C29.1482 15.0586 28.2821 15.3792 27.6024 15.9622C26.9226 16.5453 26.4739 17.3524 26.3375 18.2375C25.1223 18.7215 24.0139 19.4392 23.075 20.35C22.106 21.2722 21.3339 22.3812 20.8054 23.6101C20.2769 24.839 20.0029 26.1623 20 27.5V31.925C20.0086 32.1312 19.9623 32.336 19.8656 32.5183C19.769 32.7006 19.6255 32.8539 19.45 32.9625C18.7567 33.3289 18.1957 33.9034 17.8459 34.6052C17.4961 35.307 17.3751 36.1008 17.5 36.875C17.674 37.7713 18.16 38.577 18.8717 39.1491C19.5834 39.7212 20.4747 40.0227 21.3875 40H25C25 41.3261 25.5268 42.5978 26.4644 43.5355C27.4021 44.4732 28.6739 45 30 45C31.3261 45 32.5978 44.4732 33.5355 43.5355C34.4732 42.5978 35 41.3261 35 40H38.6125C39.5253 40.0227 40.4166 39.7212 41.1283 39.1491C41.8399 38.577 42.3259 37.7713 42.5 36.875C42.6248 36.1008 42.5038 35.307 42.1541 34.6052C41.8043 33.9034 41.2433 33.3289 40.55 32.9625ZM30 42.5C29.3369 42.5 28.7011 42.2366 28.2322 41.7678C27.7634 41.2989 27.5 40.663 27.5 40H32.5C32.5 40.663 32.2366 41.2989 31.7677 41.7678C31.2989 42.2366 30.663 42.5 30 42.5ZM38.6125 37.5H21.3875C21.0735 37.5155 20.7637 37.4219 20.5109 37.235C20.258 37.0482 20.0775 36.7797 20 36.475C19.9526 36.2151 19.9888 35.9469 20.1033 35.7089C20.2178 35.4708 20.4048 35.2752 20.6375 35.15C21.208 34.8281 21.6817 34.3591 22.0092 33.7919C22.3368 33.2247 22.5063 32.58 22.5 31.925V27.5C22.499 26.4954 22.6999 25.5008 23.0907 24.5754C23.4815 23.6499 24.0543 22.8124 24.775 22.1125C25.3669 21.5333 26.0567 21.0636 26.8125 20.725C27.8067 20.2459 28.8964 19.998 30 20H30.2375C31.2592 20.0356 32.2612 20.2914 33.175 20.75C34.4819 21.4211 35.5776 22.4408 36.3409 23.6961C37.1043 24.9514 37.5054 26.3934 37.5 27.8625V31.925C37.4924 32.5787 37.66 33.2226 37.9853 33.7897C38.3107 34.3568 38.7818 34.8265 39.35 35.15C39.5826 35.2726 39.7706 35.4654 39.8873 35.7011C40.004 35.9367 40.0435 36.2032 40 36.4625C39.9249 36.7695 39.7455 37.0409 39.4924 37.2302C39.2393 37.4195 38.9282 37.5148 38.6125 37.5Z"/>
</svg>
